<?xml version="1.0" encoding="utf-8"?>
<!-- Generator: Adobe Illustrator 16.0.0, SVG Export Plug-In . SVG Version: 6.00 Build 0)  -->
<!DOCTYPE svg PUBLIC "-//W3C//DTD SVG 1.1//EN" "http://www.w3.org/Graphics/SVG/1.1/DTD/svg11.dtd">
<svg version="1.1" id="レイヤー_1" xmlns="http://www.w3.org/2000/svg" xmlns:xlink="http://www.w3.org/1999/xlink" x="0px"
	 y="0px" width="595.28px" height="841.89px" viewBox="0 0 595.28 841.89" enable-background="new 0 0 595.28 841.89"
	 xml:space="preserve">
<g>
	<path d="M249.291,556.701L248,555.494c0.519-0.559,1.101-1.145,1.667-1.746l7.425-7.762l-6.598,0.123l-0.02-1.766l8.7-0.166
		l0.665,1.496l-5.636,5.891c0.182,0,0.368-0.025,0.558-0.025c1.73-0.016,3.329,0.77,4.659,2.375
		c0.665,0.809,1.314,1.102,1.789,1.082c0.459,0,0.978-0.211,1.56-0.916l1.373,1.141c-0.788,0.957-1.809,1.543-2.917,1.543
		c-0.016,0-0.016,0-0.016,0c-1.188,0-2.268-0.664-3.159-1.725c-1.108-1.314-2.042-1.711-3.289-1.727
		c-0.273,0-0.538,0.016-0.831,0.061c-1.144,0.166-2.165,0.748-3.036,1.666L249.291,556.701z M258.505,542.285
		c-2.015-0.039-4.303-0.371-6.306-0.895l0.459-1.729c1.852,0.502,4.013,0.811,5.889,0.855L258.505,542.285z"/>
	<path d="M307.553,556.701l-1.291-1.207c0.523-0.559,1.102-1.145,1.67-1.746l7.426-7.762l-6.602,0.123l-0.016-1.766l8.699-0.166
		l0.666,1.496l-5.637,5.891c0.182,0,0.363-0.025,0.555-0.025c1.732-0.016,3.332,0.77,4.662,2.375
		c0.664,0.809,1.314,1.102,1.789,1.082c0.459,0,0.973-0.211,1.559-0.916l1.369,1.141c-0.783,0.957-1.805,1.543-2.912,1.543
		c-0.016,0-0.016,0-0.016,0c-1.188,0-2.271-0.664-3.158-1.725c-1.109-1.314-2.043-1.711-3.293-1.727
		c-0.27,0-0.539,0.016-0.832,0.061c-1.141,0.166-2.16,0.748-3.031,1.666L307.553,556.701z M316.768,542.285
		c-2.012-0.039-4.299-0.371-6.303-0.895l0.461-1.729c1.852,0.502,4.012,0.811,5.889,0.855L316.768,542.285z"/>
	<path d="M277.341,544.031c0-0.645,0.023-1.311,0.087-1.955l1.746,0.146c-0.043,0.602-0.063,1.207-0.063,1.809
		c-0.02,3.662,0.895,7.322,2.351,9.424l2.015-1.686l1.148,1.354l-3.396,2.83l-0.558-0.645
		C278.45,552.791,277.365,548.422,277.341,544.031z M290.347,543.244c1.433,2.723,2.082,4.535,3.032,7.924l-1.706,0.475
		c-0.954-3.348-1.512-4.947-2.894-7.568L290.347,543.244z"/>
	<path d="M346.23,551.295c0-1.148-0.666-2.271-2.141-2.787c-0.895-0.316-1.838-0.502-2.811-0.502c-1.461,0-2.977,0.391-4.643,1.412
		c-0.184,0.127-0.436,0.293-0.666,0.5l-1.307,1.166l-1.207-1.289c0.021,0,0.662-0.602,1.35-1.227l6.512-5.848
		c-1.604,0.041-3.617,0.084-4.971,0.084c-0.357,0-0.666,0-0.914,0l0.039-1.77c0.232,0,0.518,0,0.875,0
		c2.453,0,7.303-0.119,7.303-0.119l0.625,1.537l-4.311,3.865c0.436-0.059,0.879-0.078,1.314-0.078c1.184,0,2.326,0.225,3.391,0.602
		c2.143,0.729,3.33,2.576,3.33,4.453c0,1.6-0.859,3.197-2.494,4.135c-1.631,0.939-3.377,1.352-4.916,1.352
		c-1.164,0-2.244-0.227-3.123-0.682c-0.846-0.459-1.555-1.23-1.701-2.248c-0.023-0.127-0.023-0.27-0.023-0.396
		c-0.016-1.021,0.586-1.852,1.289-2.287c0.709-0.459,1.541-0.625,2.328-0.641c0.146,0,0.277,0.016,0.424,0.016
		c1.1,0.102,2.117,0.521,2.865,1.227c0.689,0.648,1.127,1.543,1.188,2.541c0.27-0.127,0.518-0.25,0.768-0.396
		C345.748,553.25,346.23,552.268,346.23,551.295z M342.07,554.869c0.02-0.104,0.02-0.188,0.02-0.27c0-0.641-0.229-1.145-0.664-1.539
		c-0.42-0.396-1.041-0.686-1.789-0.752c-0.111,0-0.191-0.018-0.277-0.018c-0.016,0-0.016,0-0.016,0c-0.52,0-1.041,0.143-1.373,0.354
		c-0.309,0.229-0.439,0.416-0.455,0.811c0,0.041,0,0.107,0.016,0.166c0.023,0.293,0.232,0.602,0.771,0.92
		c0.545,0.287,1.354,0.475,2.287,0.475c0.475,0,0.982-0.041,1.5-0.146H342.07z"/>
</g>
<path fill="#00666C" d="M329.23,423.906c-11.537,5.445-24.33,10.992-37.023,7.088c-14.803-4.566-26.851-14.375-35.78-26.898
	c-8.569-12.03-16.145-29.823-11.558-44.759c2.146-6.953,4.979-13.443,9.491-19.203c4.117-5.246,9.555-9.176,12.892-15.044
	c2.082-4.231,4.167-8.456,6.257-12.688c3.539-7.191,5.545-16.895,12.417-21.813c7.366-5.284,18.5,2.838,24.662,6.887
	c9.254,6.062,17.697,13.588,24.488,22.339c6.613,8.547,9.412,17.471,12.492,27.441c2.758,8.914,4.742,20.22,4.936,29.561
	C352.828,392.903,346.768,415.606,329.23,423.906C324.619,426.084,333.85,421.723,329.23,423.906z"/>
<path fill="#159EA2" d="M309.646,340.723c-2.371-2.379-6.412-1.787-8.074,1.098c-4.702,8.775-11.344,16.323-19.292,22.205
	c-17.601,13.271-13.624,41.514,6.848,49.62c19.936,7.9,41.559-8.945,39.045-30.146C327.283,366.92,320.432,351.948,309.646,340.723z
	"/>
<path fill="#EEF0DE" d="M312.227,388.727c0,7.141-5.791,12.931-12.93,12.931c-7.141,0-12.931-5.791-12.931-12.931
	c0-7.138,5.79-12.931,12.931-12.931C306.436,375.796,312.227,381.589,312.227,388.727z"/>
<g>
	<path d="M246.73,521.213c-5.189,0-9.483-1.771-13.117-5.422c-3.642-3.652-5.411-7.947-5.411-13.141s1.769-9.482,5.402-13.117
		c3.642-3.641,7.936-5.41,13.125-5.41c3.768,0,6.97,0.768,9.511,2.279c2.937,1.762,4.37,4.213,4.37,7.494
		c0,2.846-1.018,5.152-3.107,7.061c-2.121,1.936-4.567,2.881-7.488,2.881h-15.037c-1.449,0-2.386,1.014-2.386,2.588
		c0,3.088,1.729,5.818,5.145,8.123c2.937,2.002,5.969,3.02,8.993,3.02c3.432,0,6.642-1.129,9.551-3.352
		c1.152-0.871,1.816-1.002,2.117-1.002c0.396,0,0.57,1.148,0.57,2.213c0,0.736-0.214,1.338-0.657,1.836
		c-0.91,1.053-2.684,2.002-5.28,2.826C250.625,520.834,248.503,521.213,246.73,521.213z M246.73,487.729
		c-3.19,0-6.063,0.859-8.549,2.549c-2.505,1.711-4.283,4.102-5.272,7.109c-0.127,0.371-0.19,0.775-0.19,1.195
		c0,1.307,0.922,2.176,2.299,2.176h14.138c1.833,0,3.487-0.576,4.912-1.721c1.512-1.219,2.276-2.807,2.276-4.73
		c0-1.654-0.638-3.93-3.661-5.379C250.997,488.133,248.994,487.729,246.73,487.729z"/>
	<path d="M288.795,521.174c-1.068,0-2.002-0.482-2.869-1.48c-0.915-1.049-1.362-2.109-1.362-3.236v-20.793
		c0-1.443,0-5.838-2.96-5.838c-0.479,0-0.808-0.17-1.088-0.566c-0.372-0.51-0.55-1.08-0.55-1.729c0-0.166,0.103-0.813,1.409-2.074
		c1.286-1.242,1.967-1.377,2.201-1.377c1.1,0,2.066,0.471,2.949,1.439c0.918,1.002,1.361,2.047,1.361,3.199v20.791
		c0,1.619,0,5.926,2.877,5.926c0.471,0,0.808,0.174,1.12,0.578c0.376,0.49,0.562,1.02,0.562,1.631c0,0.166-0.103,0.818-1.433,2.113
		C289.678,521.07,288.978,521.174,288.795,521.174z"/>
	<path d="M326.131,521.213c-5.184,0-9.479-1.771-13.115-5.422c-3.639-3.648-5.408-7.947-5.408-13.141s1.766-9.482,5.402-13.117
		c3.643-3.641,7.938-5.41,13.121-5.41c3.77,0,6.971,0.768,9.516,2.279c2.938,1.762,4.369,4.213,4.369,7.494
		c0,2.846-1.018,5.152-3.107,7.061c-2.117,1.936-4.57,2.881-7.492,2.881h-15.031c-1.449,0-2.387,1.014-2.387,2.588
		c0,3.088,1.729,5.818,5.137,8.123c2.945,2.002,5.973,3.02,8.996,3.02c3.432,0,6.646-1.129,9.555-3.352
		c1.152-0.871,1.816-1.002,2.113-1.002c0.396,0,0.574,1.148,0.574,2.213c0,0.736-0.213,1.338-0.656,1.836
		c-0.914,1.053-2.691,2.002-5.289,2.826C330.029,520.834,327.904,521.213,326.131,521.213z M326.131,487.729
		c-3.186,0-6.063,0.859-8.545,2.549c-2.51,1.711-4.283,4.102-5.279,7.109c-0.123,0.383-0.186,0.783-0.186,1.195
		c0,1.307,0.926,2.176,2.303,2.176h14.131c1.836,0,3.494-0.576,4.914-1.721c1.518-1.223,2.281-2.811,2.281-4.73
		c0-1.654-0.639-3.93-3.666-5.379C330.395,488.133,328.395,487.729,326.131,487.729z"/>
	<path d="M364.148,521.174c-1.068,0-2.008-0.482-2.873-1.48c-0.91-1.049-1.357-2.109-1.357-3.236v-53.213
		c0-1.439,0-5.834-2.961-5.834c-0.48,0-0.809-0.17-1.094-0.566c-0.367-0.51-0.549-1.08-0.549-1.729c0-0.17,0.102-0.824,1.412-2.098
		c1.283-1.26,1.967-1.393,2.201-1.393c1.1,0,2.063,0.475,2.941,1.455c0.918,1.014,1.365,2.066,1.365,3.223v53.207
		c0,1.619,0,5.926,2.881,5.926c0.471,0,0.799,0.174,1.121,0.578c0.375,0.49,0.561,1.02,0.561,1.631c0,0.166-0.102,0.818-1.432,2.113
		C365.063,521.039,364.377,521.174,364.148,521.174z"/>
	<path fill="#159EA2" d="M287.834,458.662c-0.499-0.5-1.354-0.377-1.702,0.232c-0.989,1.85-2.391,3.436-4.061,4.674
		c-3.708,2.795-2.869,8.748,1.437,10.453c4.204,1.668,8.759-1.883,8.229-6.348C291.546,464.18,290.102,461.027,287.834,458.662z"/>
</g>
<g>
</g>
<g>
</g>
<g>
</g>
<g>
</g>
<g>
</g>
<g>
</g>
</svg>
