<?xml version="1.0" encoding="utf-8"?>
<!-- Generator: Adobe Illustrator 16.0.0, SVG Export Plug-In . SVG Version: 6.00 Build 0)  -->
<!DOCTYPE svg PUBLIC "-//W3C//DTD SVG 1.1//EN" "http://www.w3.org/Graphics/SVG/1.1/DTD/svg11.dtd">
<svg version="1.1" id="レイヤー_1" xmlns="http://www.w3.org/2000/svg" xmlns:xlink="http://www.w3.org/1999/xlink" x="0px"
	 y="0px" width="595.28px" height="841.89px" viewBox="0 0 595.28 841.89" enable-background="new 0 0 595.28 841.89"
	 xml:space="preserve">
<path fill="#00666C" d="M207.274,458.414c-9.823,4.638-20.712,9.358-31.518,6.035c-12.602-3.887-22.857-12.237-30.458-22.898
	c-7.294-10.24-13.743-25.388-9.839-38.101c1.827-5.918,4.24-11.445,8.08-16.347c3.504-4.465,8.133-7.813,10.974-12.807
	c1.772-3.602,3.548-7.198,5.326-10.801c3.013-6.122,4.722-14.381,10.57-18.567c6.271-4.499,15.749,2.415,20.994,5.861
	c7.877,5.161,15.065,11.567,20.846,19.017c5.63,7.276,8.012,14.873,10.634,23.359c2.348,7.588,4.037,17.213,4.202,25.165
	C227.362,432.023,222.203,451.35,207.274,458.414C203.349,460.27,211.207,456.557,207.274,458.414z"/>
<path fill="#159EA2" d="M190.603,387.604c-2.019-2.026-5.458-1.521-6.874,0.935c-4.003,7.469-9.656,13.895-16.422,18.902
	c-14.983,11.296-11.597,35.339,5.83,42.24c16.971,6.725,35.377-7.615,33.238-25.663
	C205.616,409.906,199.784,397.159,190.603,387.604z"/>
<circle fill="#EEF0DE" cx="181.791" cy="428.469" r="11.008"/>
<g>
	<path d="M256.632,501.328l-1.737-1.625c0.698-0.75,1.481-1.539,2.243-2.349l9.996-10.448l-8.882,0.165l-0.027-2.376l11.711-0.224
		l0.895,2.014l-7.587,7.928c0.245,0,0.496-0.032,0.751-0.032c2.329-0.021,4.48,1.034,6.271,3.197
		c0.895,1.087,1.769,1.481,2.408,1.455c0.618,0,1.316-0.283,2.1-1.232l1.848,1.536c-1.06,1.288-2.435,2.076-3.927,2.076
		c-0.021,0-0.021,0-0.021,0c-1.598,0-3.053-0.895-4.252-2.322c-1.491-1.769-2.75-2.302-4.427-2.323c-0.368,0-0.725,0.021-1.119,0.08
		c-1.54,0.224-2.915,1.008-4.086,2.243L256.632,501.328z M269.036,481.924c-2.712-0.053-5.792-0.501-8.488-1.204l0.618-2.328
		c2.493,0.677,5.402,1.093,7.928,1.151L269.036,481.924z"/>
	<path d="M335.059,501.328l-1.737-1.625c0.704-0.75,1.482-1.539,2.247-2.349l9.996-10.448l-8.886,0.165l-0.021-2.376l11.71-0.224
		l0.896,2.014l-7.588,7.928c0.245,0,0.489-0.032,0.747-0.032c2.332-0.021,4.485,1.034,6.275,3.197
		c0.895,1.087,1.77,1.481,2.408,1.455c0.618,0,1.31-0.283,2.099-1.232l1.843,1.536c-1.055,1.288-2.43,2.076-3.92,2.076
		c-0.021,0-0.021,0-0.021,0c-1.598,0-3.058-0.895-4.251-2.322c-1.493-1.769-2.75-2.302-4.433-2.323c-0.362,0-0.726,0.021-1.12,0.08
		c-1.535,0.224-2.907,1.008-4.08,2.243L335.059,501.328z M347.463,481.924c-2.708-0.053-5.787-0.501-8.484-1.204l0.621-2.328
		c2.492,0.677,5.399,1.093,7.927,1.151L347.463,481.924z"/>
	<path d="M294.391,484.274c0-0.869,0.031-1.765,0.117-2.632l2.351,0.196c-0.059,0.811-0.087,1.626-0.087,2.436
		c-0.026,4.928,1.204,9.856,3.165,12.686l2.713-2.271l1.544,1.822l-4.57,3.81l-0.751-0.868
		C295.883,496.064,294.422,490.184,294.391,484.274z M311.898,483.214c1.928,3.666,2.803,6.105,4.081,10.666l-2.296,0.64
		c-1.285-4.507-2.037-6.66-3.896-10.188L311.898,483.214z"/>
	<path d="M387.123,494.051c0-1.545-0.896-3.058-2.882-3.751c-1.204-0.427-2.474-0.677-3.783-0.677c-1.966,0-4.007,0.527-6.249,1.902
		c-0.247,0.171-0.586,0.395-0.896,0.672l-1.759,1.57l-1.625-1.736c0.029,0,0.892-0.81,1.816-1.65l8.766-7.871
		c-2.158,0.055-4.869,0.112-6.691,0.112c-0.48,0-0.896,0-1.229,0l0.052-2.381c0.313,0,0.697,0,1.178,0
		c3.303,0,9.831-0.16,9.831-0.16l0.841,2.067l-5.803,5.205c0.587-0.079,1.184-0.107,1.77-0.107c1.594,0,3.132,0.304,4.564,0.811
		c2.884,0.98,4.482,3.469,4.482,5.994c0,2.153-1.156,4.305-3.357,5.567c-2.195,1.263-4.546,1.817-6.617,1.817
		c-1.567,0-3.021-0.305-4.204-0.917c-1.139-0.618-2.093-1.656-2.29-3.026c-0.031-0.17-0.031-0.361-0.031-0.532
		c-0.021-1.375,0.789-2.494,1.735-3.08c0.954-0.618,2.074-0.842,3.134-0.862c0.197,0,0.373,0.021,0.57,0.021
		c1.48,0.139,2.85,0.704,3.857,1.651c0.928,0.874,1.517,2.078,1.598,3.421c0.363-0.17,0.697-0.336,1.033-0.532
		C386.474,496.683,387.123,495.361,387.123,494.051z M381.523,498.862c0.026-0.14,0.026-0.251,0.026-0.363
		c0-0.862-0.308-1.539-0.895-2.071c-0.565-0.534-1.401-0.923-2.408-1.013c-0.149,0-0.258-0.022-0.373-0.022
		c-0.021,0-0.021,0-0.021,0c-0.699,0-1.401,0.192-1.848,0.475c-0.416,0.31-0.592,0.561-0.613,1.093c0,0.054,0,0.144,0.021,0.224
		c0.031,0.395,0.313,0.81,1.038,1.236c0.734,0.388,1.822,0.64,3.079,0.64c0.639,0,1.322-0.055,2.02-0.197H381.523z"/>
</g>
<g>
	<path d="M300.762,447.74c-6.985,0-12.766-2.386-17.656-7.299c-4.902-4.917-7.283-10.699-7.283-17.688
		c0-6.991,2.381-12.766,7.272-17.657c4.901-4.902,10.683-7.282,17.667-7.282c5.072,0,9.384,1.033,12.804,3.068
		c3.952,2.372,5.882,5.67,5.882,10.086c0,3.831-1.37,6.936-4.184,9.504c-2.854,2.606-6.149,3.879-10.079,3.879h-20.241
		c-1.95,0-3.212,1.363-3.212,3.483c0,4.157,2.328,7.832,6.926,10.934c3.953,2.696,8.035,4.064,12.105,4.064
		c4.619,0,8.939-1.519,12.856-4.512c1.552-1.173,2.445-1.349,2.851-1.349c0.533,0,0.768,1.546,0.768,2.979
		c0,0.991-0.289,1.801-0.887,2.472c-1.225,1.417-3.612,2.696-7.106,3.805C306.004,447.229,303.149,447.74,300.762,447.74z
		 M300.762,402.667c-4.294,0-8.163,1.156-11.508,3.431c-3.372,2.302-5.765,5.52-7.096,9.568c-0.171,0.501-0.256,1.045-0.256,1.609
		c0,1.759,1.242,2.93,3.095,2.93h19.031c2.466,0,4.693-0.777,6.612-2.318c2.035-1.641,3.063-3.776,3.063-6.366
		c0-2.227-0.856-5.291-4.927-7.241C306.504,403.209,303.809,402.667,300.762,402.667z"/>
	<path d="M357.385,447.688c-1.438,0-2.694-0.65-3.861-1.993c-1.23-1.411-1.833-2.839-1.833-4.357v-27.988
		c0-1.944,0-7.858-3.985-7.858c-0.645,0-1.086-0.229-1.465-0.762c-0.499-0.688-0.741-1.454-0.741-2.328
		c0-0.224,0.14-1.093,1.898-2.792c1.729-1.672,2.647-1.854,2.963-1.854c1.48,0,2.778,0.634,3.967,1.939
		c1.236,1.349,1.833,2.755,1.833,4.305v27.987c0,2.18,0,7.977,3.875,7.977c0.634,0,1.086,0.234,1.507,0.778
		c0.507,0.66,0.757,1.374,0.757,2.195c0,0.224-0.139,1.102-1.93,2.845C358.573,447.548,357.633,447.688,357.385,447.688z"/>
	<path d="M407.644,447.74c-6.978,0-12.76-2.386-17.654-7.299c-4.898-4.912-7.28-10.699-7.28-17.688
		c0-6.991,2.377-12.766,7.271-17.657c4.903-4.902,10.686-7.282,17.663-7.282c5.074,0,9.383,1.033,12.809,3.068
		c3.954,2.372,5.882,5.67,5.882,10.086c0,3.831-1.37,6.936-4.184,9.504c-2.85,2.606-6.151,3.879-10.085,3.879h-20.233
		c-1.951,0-3.213,1.363-3.213,3.483c0,4.157,2.327,7.832,6.914,10.934c3.965,2.696,8.04,4.064,12.11,4.064
		c4.619,0,8.946-1.519,12.861-4.512c1.552-1.173,2.445-1.349,2.845-1.349c0.534,0,0.773,1.546,0.773,2.979
		c0,0.991-0.287,1.801-0.884,2.472c-1.23,1.417-3.623,2.696-7.12,3.805C412.891,447.229,410.03,447.74,407.644,447.74z
		 M407.644,402.667c-4.288,0-8.161,1.156-11.503,3.431c-3.378,2.302-5.766,5.52-7.106,9.568c-0.165,0.517-0.249,1.056-0.249,1.609
		c0,1.759,1.246,2.93,3.1,2.93h19.021c2.471,0,4.703-0.777,6.614-2.318c2.043-1.646,3.071-3.782,3.071-6.366
		c0-2.227-0.859-5.291-4.935-7.241C413.383,403.209,410.69,402.667,407.644,402.667z"/>
	<path d="M458.819,447.688c-1.438,0-2.703-0.65-3.868-1.993c-1.225-1.411-1.827-2.839-1.827-4.357v-71.629
		c0-1.939,0-7.853-3.985-7.853c-0.646,0-1.089-0.229-1.473-0.763c-0.494-0.688-0.738-1.454-0.738-2.328
		c0-0.229,0.137-1.108,1.9-2.824c1.728-1.694,2.647-1.875,2.963-1.875c1.48,0,2.776,0.639,3.96,1.96
		c1.235,1.363,1.838,2.782,1.838,4.337v71.623c0,2.18,0,7.977,3.878,7.977c0.634,0,1.075,0.234,1.509,0.778
		c0.505,0.66,0.755,1.374,0.755,2.195c0,0.224-0.137,1.102-1.928,2.845C460.05,447.506,459.127,447.688,458.819,447.688z"/>
	<path fill="#159EA2" d="M356.092,363.539c-0.671-0.671-1.822-0.506-2.29,0.314c-1.333,2.488-3.218,4.625-5.469,6.292
		c-4.99,3.762-3.862,11.774,1.936,14.071c5.657,2.244,11.791-2.536,11.076-8.546C361.09,370.966,359.145,366.724,356.092,363.539z"
		/>
</g>
<g>
</g>
<g>
</g>
<g>
</g>
<g>
</g>
<g>
</g>
<g>
</g>
</svg>
